/* XPM */
static char *cue_cs[] = {
/* columns rows colors chars-per-pixel */
"32 32 2 1 ",
"  c #C8C8C8",
". c None",
/* pixels */
"................................",
"................................",
"................................",
"................................",
".....    ...  ....  ....   .....",
"....      ..  ....  ..       ...",
"...  ...  ..  ....  ..  ...  ...",
"...  .......  ....  ..       ...",
"...  .......  ....  ..       ...",
"...  .......  ....  ..  ........",
"...  ...  ..   ..   ..  ...  ...",
"....      ..        ..      ....",
".....    ....    .  ...    .....",
"................................",
"................................",
"................................",
".......     .......      .......",
"......        ....        ......",
".....          ..   ....   .....",
"....    ...    ..   ....   .....",
"....   .....  ...     ..........",
"....   ..........        .......",
"....   ...........         .....",
"....   .............        ....",
"....    ....  ..........    ....",
"....    ...    ..   .....   ....",
".....          ..    ...   .....",
"......        ....         .....",
".......      .......     .......",
"................................",
"................................",
"................................"
};
